P3
4 3
255
# 12 pixels (R G B each)
255 0 0   0 255 0   0 0 255   255 255 0
255 0 255 0 255 255 255 255 255 0 0 0
10 20 30  40 50 60  70 80 90   100 110 120
